<svg version="1.1" id="Layer_1" xmlns="http://www.w3.org/2000/svg" xmlns:xlink="http://www.w3.org/1999/xlink" x="0px" y="0px" width="16px" height="16px" viewBox="0 0 16 16" enable-background="new 0 0 16 16" xml:space="preserve">
  <g id="icon">
    <path d="M5.752,6.382c0.108,-0.064,0.231,-0.098,0.356,-0.098c0.114,0,0.228,0.029,0.329,0.083l0.069,0.037v-0.282c0,-0.273,0.139,-0.525,0.363,-0.661L11.2,2.72V2.31c0,-0.118,-0.063,-0.226,-0.163,-0.28L7.31,0.034c-0.089,-0.048,-0.195,-0.045,-0.282,0.006L0.151,4.109c-0.094,0.056,-0.152,0.16,-0.152,0.274v3.371c0,0.11,0.054,0.211,0.143,0.268l1.5,0.961l4.105,-2.599L5.752,6.382zM1.198,4.52L7.174,0.855L10.02,2.45L3.994,6.317L1.198,4.52z" fill="#797979"/>
    <path d="M15.837,4.836L12.11,2.839c-0.089,-0.048,-0.195,-0.045,-0.282,0.006L7.085,5.849c-0.094,0.056,-0.152,0.16,-0.152,0.274v0.51l3.231,1.787c0.244,0.131,0.396,0.391,0.396,0.68v2.896l0.137,0.088c0.096,0.061,0.216,0.061,0.312,-0.001l4.849,-3.454c0.088,-0.057,0.142,-0.158,0.142,-0.268V5.116C16,4.998,15.937,4.889,15.837,4.836zM10.917,7.836L8.136,6.234l3.846,-2.569l2.845,1.594L10.917,7.836z" fill="#217346"/>
    <path d="M9.97,8.819L6.243,6.767c-0.089,-0.048,-0.195,-0.045,-0.282,0.006l-4.21,2.722c-0.094,0.056,-0.152,0.16,-0.152,0.274v3.595c0,0.11,0.054,0.211,0.143,0.268l3.621,2.321c0.096,0.061,0.216,0.061,0.312,-0.001l4.316,-3.173c0.088,-0.057,0.142,-0.158,0.142,-0.268V9.099C10.133,8.981,10.07,8.873,9.97,8.819zM5.584,11.697L2.775,9.891l3.339,-2.296l2.869,1.654L5.584,11.697z" fill="#EAB765"/>
    <path d="M2.775,9.891l3.339,-2.296l2.869,1.654l-3.399,2.448L2.775,9.891zM8.136,6.234l3.846,-2.569l2.845,1.594l-3.909,2.578L8.136,6.234zM1.198,4.52L7.174,0.855L10.02,2.45L3.994,6.317L1.198,4.52z" fill="#FFFFFF"/>
  </g>
</svg>