<svg version="1.1" id="Layer_1" xmlns="http://www.w3.org/2000/svg" xmlns:xlink="http://www.w3.org/1999/xlink" x="0px" y="0px" width="32px" height="32px" viewBox="0 0 32 32" enable-background="new 0 0 32 32" xml:space="preserve">
  <g id="icon">
    <polygon points="2.19,10.052 8.49,13.902 20.88,6.342 14.44,2.912" fill="#FFFFFF" stroke-linejoin="miter"/>
    <path d="M21.694,5.626l-6.987,-3.558c-0.167,-0.085,-0.365,-0.081,-0.529,0.011L1.285,9.332C1.109,9.431,1,9.617,1,9.82v6.008c0,0.195,0.102,0.377,0.269,0.478L4.08,18.02l7.696,-4.632l0.01,-0.006c0.203,-0.114,0.434,-0.175,0.667,-0.175c0.213,0,0.427,0.051,0.617,0.148l0.13,0.066v-0.502c0,-0.486,0.26,-0.936,0.681,-1.178L22,6.855v-0.729C22,5.915,21.882,5.722,21.694,5.626zM8.49,13.902l-6.3,-3.85l12.25,-7.14l6.44,3.43L8.49,13.902z" fill="#797979"/>
    <polygon points="15.19,13.152 21.49,16.602 29.88,11.342 23.44,7.912" fill="#FFFFFF" stroke-linejoin="miter"/>
    <path d="M30.694,10.626l-6.987,-3.558c-0.167,-0.085,-0.365,-0.081,-0.529,0.011l-8.893,5.352c-0.176,0.099,-0.285,0.286,-0.285,0.488v0.909l6.057,3.185c0.458,0.233,0.743,0.698,0.743,1.212v5.162l0.257,0.157c0.18,0.11,0.406,0.109,0.585,-0.001l9.091,-6.156c0.166,-0.102,0.267,-0.282,0.267,-0.477v-5.784C31,10.915,30.882,10.722,30.694,10.626zM21.49,16.602l-6.3,-3.45l8.25,-5.24l6.44,3.43L21.49,16.602z" fill="#217346"/>
    <path d="M19.694,17.726l-6.987,-3.658c-0.167,-0.085,-0.365,-0.081,-0.529,0.011l-7.893,4.852c-0.176,0.099,-0.285,0.286,-0.285,0.488v6.408c0,0.195,0.102,0.377,0.269,0.478l6.789,4.138c0.18,0.11,0.406,0.109,0.585,-0.001l8.091,-5.656c0.166,-0.102,0.267,-0.282,0.267,-0.477v-6.084C20,18.015,19.882,17.822,19.694,17.726zM11.49,23.502l-6.3,-3.85l7.25,-4.74l6.44,3.53L11.49,23.502z" fill="#EAB765"/>
    <polygon points="5.19,19.652 11.49,23.502 18.88,18.442 12.44,14.912" fill="#FFFFFF" stroke-linejoin="miter"/>
  </g>
</svg>